# xmcd
#
# Track frame offsets: 
#        150
#        15565
#        32277
#        43255
#        60545
#        78725
#        94940
#        111685
#        129577
#        144572
#        161585
#        175425
#        192827
#        207490
#
# Disc length: 2967 seconds
#
# Revision: 2
# Processed by: cddbd v1.5.1PL0 Copyright (c) Steve Scherf et al.
# Submitted via: ExactAudioCopy v0.95a5
#
DISCID=ca0b950e
DTITLE=Various Artist - Country Hot Hits #13
DYEAR=1900
DGENRE=
TTITLE0=Billy Ray Cyrus - Achy Breaky Heart
TTITLE1=Ricky Van Shelton - Backroads
TTITLE2=Collin Raye - Every Second
TTITLE3=Tracy Lawrence - Today's Lonely Fool
TTITLE4=Little Texas - First Time For Everything
TTITLE5=Randy Travis - I'd Surrender All
TTITLE6=Pam Tillis - Blue Rose Is
TTITLE7=Michelle Wright - Take It Like A Man
TTITLE8=McBride and The Ride - Sacred Ground
TTITLE9=Alan Jackson - Midnight In Montgomery
TTITLE10=Diamond Rio - Norma Jean Riley
TTITLE11=John Anderson - When It Comes To You
TTITLE12=George Strait - Gone As A Girl Can Get
TTITLE13=Rodney Crowell - Lovin' All Night
EXTD=
EXTT0=Cyrus - Billy Ray
EXTT1=Van Shelton - Ricky
EXTT2=Raye - Collin
EXTT3=Lawrence - Tracy
EXTT4=Little Texas
EXTT5=Travis - Randy
EXTT6=Tillis - Pam
EXTT7=Wright - Michelle
EXTT8=McBride and The Ride
EXTT9=Jackson - Alan
EXTT10=Diamond Rio
EXTT11=Anderson - John
EXTT12=Strait - George
EXTT13=Crowell - Rodney
PLAYORDER=
